<svg xmlns="http://www.w3.org/2000/svg" xmlns:xlink="http://www.w3.org/1999/xlink" width="137.731" height="55.004" viewBox="0 0 137.731 55.004">
  <defs>
    <linearGradient id="linear-gradient" x1="-0.001" y1="17.658" x2="0.999" y2="17.658" gradientUnits="objectBoundingBox">
      <stop offset="0" stop-color="#3b2519"/>
      <stop offset="0.129" stop-color="#4b2d1c"/>
      <stop offset="0.333" stop-color="#60361d"/>
      <stop offset="0.51" stop-color="#6f3c1d"/>
      <stop offset="0.638" stop-color="#743e1d"/>
      <stop offset="0.725" stop-color="#703c1d"/>
      <stop offset="0.826" stop-color="#65381c"/>
      <stop offset="0.934" stop-color="#54301a"/>
      <stop offset="1" stop-color="#482a17"/>
    </linearGradient>
    <linearGradient id="linear-gradient-2" x1="-0.001" y1="19.548" x2="1.001" y2="19.548" gradientUnits="objectBoundingBox">
      <stop offset="0.04" stop-color="#fafaed"/>
      <stop offset="0.418" stop-color="#fafaed"/>
      <stop offset="0.489" stop-color="#f3f0e1"/>
      <stop offset="0.611" stop-color="#e5ddc7"/>
      <stop offset="0.769" stop-color="#cfc09f"/>
      <stop offset="0.797" stop-color="#cbbb98"/>
      <stop offset="1" stop-color="#bba786"/>
    </linearGradient>
    <linearGradient id="linear-gradient-3" x1="0.004" y1="63.843" x2="1.006" y2="63.843" gradientUnits="objectBoundingBox">
      <stop offset="0" stop-color="#fafaed"/>
      <stop offset="0.053" stop-color="#fafaed"/>
      <stop offset="0.384" stop-color="#fafaed"/>
      <stop offset="0.51" stop-color="#f5f3e5"/>
      <stop offset="0.697" stop-color="#ebe4d0"/>
      <stop offset="0.923" stop-color="#dbcfb2"/>
      <stop offset="0.999" stop-color="#d5c7a7"/>
    </linearGradient>
    <linearGradient id="linear-gradient-4" x1="-0.003" y1="45.906" x2="1.003" y2="45.906" gradientUnits="objectBoundingBox">
      <stop offset="0" stop-color="#e9dccb"/>
      <stop offset="1" stop-color="#f3eddf"/>
    </linearGradient>
    <linearGradient id="linear-gradient-5" x1="0.472" y1="51.329" x2="1.036" y2="51.094" gradientUnits="objectBoundingBox">
      <stop offset="0" stop-color="#ede2d2"/>
      <stop offset="0.432" stop-color="#efe7da"/>
      <stop offset="1" stop-color="#f0eadf"/>
    </linearGradient>
    <linearGradient id="linear-gradient-6" y1="33.834" x2="1.011" y2="33.834" gradientUnits="objectBoundingBox">
      <stop offset="0" stop-color="#ede2d2"/>
      <stop offset="1" stop-color="#eee5d6"/>
    </linearGradient>
    <linearGradient id="linear-gradient-7" x1="0.516" y1="26.966" x2="0.496" y2="26.759" gradientUnits="objectBoundingBox">
      <stop offset="0" stop-color="#bba78b"/>
      <stop offset="1" stop-color="#c8bba1"/>
    </linearGradient>
    <linearGradient id="linear-gradient-8" x1="-0.009" y1="35.258" x2="0.999" y2="35.258" gradientUnits="objectBoundingBox">
      <stop offset="0" stop-color="#beaf9a"/>
      <stop offset="0.303" stop-color="#c0b29e"/>
      <stop offset="1" stop-color="#c3b6a2"/>
    </linearGradient>
  </defs>
  <g id="codechef" transform="translate(-0.169 -0.7)">
    <g id="Group_38" data-name="Group 38">
      <g id="Un_2_" transform="translate(44.945 47.104)">
        <path id="Path_4742_2_" d="M19,4.8c0,1,.4,1.7,1.5,1.7A2.106,2.106,0,0,0,21.8,6l.1.2a.215.215,0,0,0,.2.2h.2a.215.215,0,0,0,.2-.2V2.8a.215.215,0,0,0-.2-.2H22a.215.215,0,0,0-.2.2V5.3a1.656,1.656,0,0,1-1.2.5c-.6,0-.9-.4-.9-1.1v-2a.215.215,0,0,0-.2-.2h-.3a.215.215,0,0,0-.2.2Z" fill="#38aa6b"/>
        <path id="Path_4743_2_" d="M29.4,4c-1,0-1.6.5-1.6,1.3a1.2,1.2,0,0,0,1.1,1.2H29A1.656,1.656,0,0,0,30.2,6l.1.3c0,.1.1.1.2.1h.2a.215.215,0,0,0,.2-.2V4.1c0-1.1-.2-1.6-1.3-1.6a6.753,6.753,0,0,0-1.4.2c-.1,0-.1.1-.1.2l.1.2c0,.1.1.1.2.1h0A5.019,5.019,0,0,1,29.6,3c.6,0,.7.3.6,1Zm-.3,1.9a.669.669,0,0,1-.7-.6V5.2a.817.817,0,0,1,.9-.8,1.077,1.077,0,0,1,.8.2v.8a1.231,1.231,0,0,1-1,.5Z" fill="#2a67b1" fill-rule="evenodd"/>
        <path id="Path_4744_2_" d="M31.8,4.5a2.006,2.006,0,0,0,2,2h0a1.763,1.763,0,0,0,1.5-.8c.1-.1,0-.2-.1-.3h0l-.1-.1a.187.187,0,0,0-.3,0h0a1.236,1.236,0,0,1-1.9.2,1.3,1.3,0,0,1-.1-1.9,1.6,1.6,0,0,1,1-.5,1.086,1.086,0,0,1,.9.4c.1.1.1.2.3,0l.2-.2a.188.188,0,0,0,0-.3h0a1.91,1.91,0,0,0-1.4-.7A2.342,2.342,0,0,0,31.8,4.5Z" fill="#2a67b1"/>
        <path id="Path_4745_2_" d="M37.8,4c-1,0-1.6.5-1.6,1.3a1.2,1.2,0,0,0,1.1,1.2h.1A1.656,1.656,0,0,0,38.6,6l.1.3c0,.1.1.1.2.1h.2a.215.215,0,0,0,.2-.2V4.1c0-1.1-.2-1.6-1.3-1.6a6.753,6.753,0,0,0-1.4.2c-.1,0-.1.1-.1.2l.1.2c0,.1.1.1.2.1h0A5.019,5.019,0,0,1,38,3c.6,0,.7.3.6,1Zm-.2,1.9a.669.669,0,0,1-.7-.6V5.2a.817.817,0,0,1,.9-.8,1.077,1.077,0,0,1,.8.2v.8a1.231,1.231,0,0,1-1,.5Z" fill="#2a67b1" fill-rule="evenodd"/>
        <path id="Path_4746_2_" d="M42.1,2.5a1.88,1.88,0,0,0-1.9,1.8v.2a1.788,1.788,0,0,0,1.8,2A1.656,1.656,0,0,0,43.2,6l.1.3c0,.1.1.1.2.2h.2a.215.215,0,0,0,.2-.2V.8a.215.215,0,0,0-.2-.2h-.3a.215.215,0,0,0-.2.2V2.7A4.253,4.253,0,0,0,42.1,2.5Zm0,3.4a1.4,1.4,0,0,1-1.2-1.4h0A1.244,1.244,0,0,1,42,3.1h.2a3.553,3.553,0,0,1,1,.2V5.2a1.269,1.269,0,0,1-1.1.7Z" fill="#2a67b1" fill-rule="evenodd"/>
        <path id="Path_4747_2_" d="M46.7,2.5a2.03,2.03,0,0,0-2,2.1,2.074,2.074,0,0,0,2,2,2.822,2.822,0,0,0,1.5-.4c.1-.1.1-.2,0-.2l-.1-.1L48,5.6c-.1-.1-.1-.1-.2,0h0a1.689,1.689,0,0,1-1,.3,1.309,1.309,0,0,1-1.3-1.2h2.8a.215.215,0,0,0,.2-.2V4.2a1.685,1.685,0,0,0-1.7-1.7Zm1.1,1.6H45.5a1.151,1.151,0,0,1,2.3,0Z" fill="#2a67b1" fill-rule="evenodd"/>
        <path id="Path_4748_2_" d="M49.4,6.2a.215.215,0,0,0,.2.2h.3a.215.215,0,0,0,.2-.2V3.7a1.606,1.606,0,0,1,1.1-.5c.6,0,.9.4.9,1.1v2a.215.215,0,0,0,.2.2h.3a.215.215,0,0,0,.2-.2V3.8A1.656,1.656,0,0,1,54,3.3c.6,0,.9.4.9,1.1v2a.215.215,0,0,0,.2.2h.3a.215.215,0,0,0,.2-.2v-2c0-1-.4-1.7-1.5-1.7a2.815,2.815,0,0,0-1.5.6,1.371,1.371,0,0,0-1.3-.6,2.106,2.106,0,0,0-1.3.5l-.1-.3c0-.1-.1-.1-.2-.1h-.2a.215.215,0,0,0-.2.2Z" fill="#2a67b1"/>
        <path id="Path_4749_2_" d="M58.3,6.4l-.8,2c-.1.1,0,.2.2.2h.4c.1,0,.1,0,.2-.1l2.6-5.7c.1-.1,0-.2-.1-.2h-.4c-.1,0-.1,0-.2.1L58.8,5.6,57.3,2.7c0-.1-.1-.1-.2-.1h-.4c-.1,0-.2.1-.1.2Z" fill="#2a67b1"/>
        <path id="Path_4750_2_" d="M23.3,6.2a.215.215,0,0,0,.2.2h.3a.215.215,0,0,0,.2-.2V3.7a1.9,1.9,0,0,1,1.3-.5c.6,0,.9.4.9,1.1v2a.215.215,0,0,0,.2.2h.3a.215.215,0,0,0,.2-.2v-2c0-1-.4-1.7-1.5-1.7a2.389,2.389,0,0,0-1.4.5l-.1-.3c0-.1-.1-.1-.2-.1h-.2a.215.215,0,0,0-.2.2Z" fill="#38aa6b"/>
        <path id="Path_4751_2_" d="M7.5,1.4a4.949,4.949,0,0,0,5.7,3.9,5.057,5.057,0,0,0,3.9-3.8c0-.2.1-.3.1-.5a.265.265,0,0,0-.3-.3H7.7a.265.265,0,0,0-.3.3h0C7.4,1.1,7.5,1.2,7.5,1.4Z" fill="#2a67b1"/>
        <path id="Path_4752_2_" d="M14.7,8.2a2.428,2.428,0,0,0-2.9-1.9A2.339,2.339,0,0,0,9.9,8.2v.3a.1.1,0,0,0,.1.1h4.6a.1.1,0,0,0,.1-.1h0Q14.7,8.35,14.7,8.2Z" fill="#38aa6b"/>
      </g>
      <g id="Group_37" data-name="Group 37">
        <path id="Path_10" data-name="Path 10" d="M46.8,53.4,46.3,52H44.6L44,53.4h-.5l1.7-4.3h.4l1.7,4.3Zm-.7-1.8-.5-1.3c-.1-.2-.1-.4-.2-.6a1.421,1.421,0,0,1-.2.6l-.5,1.3Z" fill="#2b2b2b"/>
        <path id="Path_11" data-name="Path 11" d="M50.1,53.4V51.3a.707.707,0,0,0-.8-.8.779.779,0,0,0-.7.3,2,2,0,0,0-.2.9v1.7h-.5V50.2h.4l.1.4h0a.781.781,0,0,1,.4-.4,1.268,1.268,0,0,1,.6-.1,1.061,1.061,0,0,1,1.2,1.2v2.1h-.5Z" fill="#2b2b2b"/>
        <path id="Path_12" data-name="Path 12" d="M108.6,53.4V49.1h.5v4.3Z" fill="#2b2b2b"/>
        <path id="Path_13" data-name="Path 13" d="M112.5,53.4V51.3a.707.707,0,0,0-.8-.8.779.779,0,0,0-.7.3,2,2,0,0,0-.2.9v1.7h-.5V50.2h.4l.1.4h0a.781.781,0,0,1,.4-.4,1.268,1.268,0,0,1,.6-.1,1.061,1.061,0,0,1,1.2,1.2v2.1h-.5Z" fill="#2b2b2b"/>
        <path id="Path_14" data-name="Path 14" d="M114,49.3c0-.1,0-.2.1-.2s.1-.1.2-.1.1,0,.2.1.1.1.1.2,0,.2-.1.2-.1.1-.2.1-.2,0-.2-.1S114,49.4,114,49.3Zm.5,4.1H114V50.2h.5Z" fill="#2b2b2b"/>
        <path id="Path_15" data-name="Path 15" d="M116.6,53.1h.4v.4c-.1,0-.1,0-.2.1h-.3c-.6,0-.9-.3-.9-1V50.7h-.5v-.2l.5-.2.2-.7h.3v.7h.9v.4h-.9v1.9c0,.2,0,.3.1.4A.6.6,0,0,0,116.6,53.1Z" fill="#2b2b2b"/>
        <path id="Path_16" data-name="Path 16" d="M117.7,49.3c0-.1,0-.2.1-.2s.1-.1.2-.1.1,0,.2.1.1.1.1.2,0,.2-.1.2-.1.1-.2.1-.2,0-.2-.1S117.7,49.4,117.7,49.3Zm.6,4.1h-.5V50.2h.5Z" fill="#2b2b2b"/>
        <path id="Path_17" data-name="Path 17" d="M121.3,53.4l-.1-.5h0a1.756,1.756,0,0,1-.5.4,1.268,1.268,0,0,1-.6.1,1.165,1.165,0,0,1-.7-.2.908.908,0,0,1-.3-.7c0-.6.5-1,1.6-1h.5v-.2a1.072,1.072,0,0,0-.2-.6.764.764,0,0,0-.5-.2,2.92,2.92,0,0,0-.9.2l-.1-.4c.2-.1.3-.2.5-.2s.4-.1.6-.1a1.222,1.222,0,0,1,.9.3.984.984,0,0,1,.3.8v2.2h-.5Zm-1.1-.3a1.445,1.445,0,0,0,.7-.2.908.908,0,0,0,.3-.7v-.3h-.5a1.292,1.292,0,0,0-.8.2.85.85,0,0,0-.3.5.52.52,0,0,0,.2.4C119.9,53,120,53.1,120.2,53.1Z" fill="#2b2b2b"/>
        <path id="Path_18" data-name="Path 18" d="M123.8,53.1h.4v.4c-.1,0-.1,0-.2.1h-.3c-.6,0-.9-.3-.9-1V50.7h-.5v-.2l.5-.2.2-.7h.3v.7h.9v.4h-.9v1.9c0,.2,0,.3.1.4S123.6,53.1,123.8,53.1Z" fill="#2b2b2b"/>
        <path id="Path_19" data-name="Path 19" d="M124.9,49.3c0-.1,0-.2.1-.2s.1-.1.2-.1.1,0,.2.1.1.1.1.2,0,.2-.1.2-.1.1-.2.1-.2,0-.2-.1S124.9,49.4,124.9,49.3Zm.5,4.1h-.5V50.2h.5Z" fill="#2b2b2b"/>
        <path id="Path_20" data-name="Path 20" d="M127.2,53.4,126,50.2h.5l.7,1.9a9.205,9.205,0,0,1,.3.9h0a3.933,3.933,0,0,1,.2-.6c.1-.3.4-1,.8-2.1h.5l-1.2,3.2h-.6Z" fill="#2b2b2b"/>
        <path id="Path_21" data-name="Path 21" d="M130.9,53.5a1.366,1.366,0,0,1-1.1-.4,2,2,0,0,1,0-2.4,1.389,1.389,0,0,1,1-.5,1.367,1.367,0,0,1,1.4,1.4v.3H130a1.222,1.222,0,0,0,.3.9.984.984,0,0,0,.8.3,3.553,3.553,0,0,0,1-.2v.4c-.2.1-.3.1-.5.2Zm-.1-2.9a.6.6,0,0,0-.6.3,4.875,4.875,0,0,0-.3.7h1.7a1.445,1.445,0,0,0-.2-.7A.6.6,0,0,0,130.8,50.6Z" fill="#2b2b2b"/>
      </g>
    </g>
    <g id="Current">
      <g id="Group_45" data-name="Group 45">
        <path id="base_4_" d="M136.2,18.4a5.648,5.648,0,0,0-4.1-1.9h-.3L36.2,22.7h0c-4.7.5-7.3,3.3-7.7,8.2v.6h-.7a.756.756,0,0,0-.4.1v-2c1-.6,1.4-2.3,2-5.2a5.16,5.16,0,0,0,.2-1.1,25.229,25.229,0,0,1,2.9-4.6c1.8-2.5,3.7-5.1,3.5-8.2l-.1-.4a14.968,14.968,0,0,0-8.3-7.8,12.649,12.649,0,0,0-2.8-.7c-.3-.1-.6-.1-.8-.2h-.1A31.984,31.984,0,0,0,17.6.7a24.519,24.519,0,0,0-2.7.2,17.379,17.379,0,0,0-3.4,1.2A9.952,9.952,0,0,1,7.8,3.3H7.3a7.063,7.063,0,0,0-4,2.9c0,.1-.1.1-.1.2l-.1.2a8.7,8.7,0,0,0-.6,5.5v.1c.3,1,.7,1.9,1,2.9a21.622,21.622,0,0,1,1.6,5.5l.2.4A7.711,7.711,0,0,1,6,23c.5,1.6,1,3.6,2.6,5.1v2.4s-5.7,2.8-7.4,4c-.8.6-1.9,2.1.1,3.4,1.5,1,6.5,3.6,6.5,3.7a5.5,5.5,0,0,0,1,4A5.419,5.419,0,0,0,13,47.3a7.073,7.073,0,0,0,4.4-1.5,2.7,2.7,0,0,0,.7-.8,5.008,5.008,0,0,0,.7.8,6.523,6.523,0,0,0,4.4,1.5,5.419,5.419,0,0,0,4.2-1.7,4.534,4.534,0,0,0,.9-4l-.1-.3.9-.4V41c.1,1.1.3,3,3.2,3.3h0L131.9,47h.1a5.7,5.7,0,0,0,4.2-1.9,6.374,6.374,0,0,0,1.7-4.4V22.8A6.557,6.557,0,0,0,136.2,18.4Z" fill="#fff"/>
        <path id="brown_4_" d="M36.3,23.9l95.6-6.2c2.7-.2,4.9,2.3,4.9,5.1V40.5a4.955,4.955,0,0,1-4.9,5.1L32.3,42.9c-2.1-.2-2-1.4-2.1-2.5,7-1.3,3.1-9.8-.5-9.3.3-5.2,3.2-6.9,6.6-7.2Z" fill-rule="evenodd" fill="url(#linear-gradient)"/>
        <g id="face_4_">
          <g id="Group_39" data-name="Group 39">
            <path id="Path_22" data-name="Path 22" d="M29.7,33.2h0a6.4,6.4,0,0,1,2.9,1.7.4.4,0,0,1,.2.4c0,.3-.2.5-.6.7-.4.3-1.1.8-2,1.5a12.522,12.522,0,0,1-2,1.4c-.1,0-.2.1-.3.1a.4.4,0,0,1-.4-.2c-.1-.2-.2-.2-.2-.4a.367.367,0,0,1,.1-.3,1.828,1.828,0,0,1,.8-.6,9.015,9.015,0,0,0,1.1-.7,8.835,8.835,0,0,1,1.1-.8c.4-.2.6-.4.6-.5v-.1a1.933,1.933,0,0,0-1.2-.9c-.5-.1-1-.3-1.5-.4a3.162,3.162,0,0,1-1.3-.7v-.1c0-.1.1-.2.2-.4a.758.758,0,0,1,.4-.2h.2a3.091,3.091,0,0,1,.8.2,3.874,3.874,0,0,1,1.1.3M6.9,32.7a.694.694,0,0,1,.7.6.367.367,0,0,1-.1.3,6.677,6.677,0,0,1-2,1.1A3.806,3.806,0,0,0,3.7,36a22.224,22.224,0,0,0,2.2,1.1c1.4.6,2.2,1,2.2,1,.2.1.3.2.3.4a.864.864,0,0,1-.3.6,1.08,1.08,0,0,1-.7.3.367.367,0,0,1-.3-.1,2.181,2.181,0,0,0-.5-.4c-1.3-.7-2.7-1.4-4.1-2-.1-.1-.3-.1-.4-.2-.2-.1-.3-.2-.3-.4a1.729,1.729,0,0,1,.6-1.2,7.161,7.161,0,0,1,2.2-1.2,13.542,13.542,0,0,0,2.2-1.2Z" fill="#5c4638"/>
            <path id="Path_23" data-name="Path 23" d="M16.1,32.7a2.311,2.311,0,0,0-.7-.7,1.445,1.445,0,0,0-.7-.2h-.2l-1.6.6h-.3a.749.749,0,0,1-.5-.1,3.807,3.807,0,0,1-.5-.6l-.6.2a2.975,2.975,0,0,0,.7.8,1.445,1.445,0,0,0,.7.2.6.6,0,0,0,.4-.1l1.5-.5c.1,0,.2-.1.3-.1a.9.9,0,0,1,.5.1l.5.5.5-.1" fill="#5c4638"/>
            <path id="Path_24" data-name="Path 24" d="M27,41.7c.8,4.9-5.1,5.3-7.6,3.2-1.7-1.5-1.2-3.6,1.2-3.5,2.2,0,3.4,2.8,6.4.3" fill="#5c4638" fill-rule="evenodd"/>
            <path id="Path_25" data-name="Path 25" d="M8.9,41.7c-.8,4.9,5.1,5.3,7.6,3.2,1.7-1.5,1.2-3.6-1.2-3.5-2.1,0-3.4,2.8-6.4.3" fill="#5c4638" fill-rule="evenodd"/>
            <path id="Path_26" data-name="Path 26" d="M14.8,34.6a1.689,1.689,0,0,0-1-.3,1.594,1.594,0,0,0-1.2.4,1.354,1.354,0,0,0-.4,1.4,2.106,2.106,0,0,0,.5,1.3,1.382,1.382,0,0,0,1.1.6,2.353,2.353,0,0,0,.8-.2c.5-.3.7-.8.7-1.7C15.3,35.3,15.1,34.8,14.8,34.6Zm-1,1.9a.5.5,0,1,1,.5-.5A.536.536,0,0,1,13.8,36.5Z" fill="#5c4638"/>
            <path id="Path_27" data-name="Path 27" d="M18.3,40.9c.2,0,.3,0,.4-.1s.3-.1.4-.2l.3-.3c.1-.1.2-.2.2-.3.1-.1.1-.2.2-.3a.349.349,0,0,1,.1-.2h0c-.1.2-.3.4-.4.6-.2.1-.3.3-.5.3a1.268,1.268,0,0,1-.6.1.749.749,0,0,1-.5-.1.52.52,0,0,1-.4-.2l-.3-.3c-.1-.1-.2-.3-.3-.4h0l.3.6a1.756,1.756,0,0,0,.4.5.85.85,0,0,0,.5.3h.2" fill="#5c4638"/>
            <path id="Path_28" data-name="Path 28" d="M23.1,34.5a1.689,1.689,0,0,0-1-.3,1.594,1.594,0,0,0-1.2.4,1.354,1.354,0,0,0-.4,1.4,2.106,2.106,0,0,0,.5,1.3,1.382,1.382,0,0,0,1.1.6,2.353,2.353,0,0,0,.8-.2c.5-.3.7-.8.7-1.7A2.07,2.07,0,0,0,23.1,34.5Zm-1.2,2.1a.5.5,0,1,1,.5-.5A.536.536,0,0,1,21.9,36.6Z" fill="#5c4638"/>
          </g>
          <g id="Cap_4_">
            <g id="Group_40" data-name="Group 40">
              <path id="Path_29" data-name="Path 29" d="M26.6,28.7c.8-.4,1.3-3.2,1.8-5.8,2-4.6,6.6-8,6.3-12.4C31,3.3,25.8,3,23.6,2.5A27.873,27.873,0,0,0,15,2c-2.1.3-4.7,2.3-7.2,2.4A6.074,6.074,0,0,0,4.2,7.1a7.3,7.3,0,0,0-.5,4.8c.9,2.9,2.3,5.4,2.7,8.6.9,1.7,1,4.8,3.2,7C16.2,24.2,21.6,26.7,26.6,28.7Z" fill="url(#linear-gradient-2)"/>
              <path id="Path_30" data-name="Path 30" d="M26.5,28.8l-.6-.3c-5-2-10.1-4.1-16.4-1.1h0A10.138,10.138,0,0,1,7,22.6a11.256,11.256,0,0,0-.8-2.2h0a27.747,27.747,0,0,0-1.7-5.8c-.3-.9-.7-1.8-1-2.8A7.348,7.348,0,0,1,4.1,7a.349.349,0,0,0,.1-.2A6.018,6.018,0,0,1,7.7,4.3,13.873,13.873,0,0,0,11.8,3a10.535,10.535,0,0,1,3.1-1.1,26.359,26.359,0,0,1,8.7.5c.3.1.5.1.9.2,2.4.5,7,1.5,10.3,7.9h0c.2,2.7-1.5,5-3.3,7.5a26.748,26.748,0,0,0-3,4.9c-.1.4-.2.8-.3,1.3-.5,2.3-.9,4.2-1.7,4.6Zm-10.6-3c3.6,0,6.9,1.3,10,2.6l.6.2c.7-.3,1.1-2.3,1.5-4.5.1-.4.2-.8.3-1.3a26.748,26.748,0,0,1,3-4.9c1.8-2.5,3.4-4.8,3.3-7.4C31.3,4.2,27,3.2,24.4,2.7c-.3-.1-.6-.1-.9-.2A25.643,25.643,0,0,0,14.9,2a10.012,10.012,0,0,0-3,1.1A11.459,11.459,0,0,1,7.8,4.4,6.018,6.018,0,0,0,4.3,6.9c0,.1-.1.1-.1.2a6.95,6.95,0,0,0-.5,4.7c.3.9.7,1.9,1,2.8a26.081,26.081,0,0,1,1.7,5.8,11.256,11.256,0,0,1,.8,2.2,10.341,10.341,0,0,0,2.3,4.7A14.5,14.5,0,0,1,15.9,25.8Z" fill="#c9bda9"/>
            </g>
            <g id="Group_41" data-name="Group 41">
              <path id="Path_31" data-name="Path 31" d="M9.7,29.2c2.4-1.3,8.4-4.4,16.3,1.1a16.973,16.973,0,0,0,.1-3.9c-.2-3-12.2-6.8-16.5-.1l.1,2.9" fill-rule="evenodd" fill="url(#linear-gradient-3)"/>
              <path id="Path_32" data-name="Path 32" d="M26.1,30.3h0a15.512,15.512,0,0,0-10.3-3.1,17.2,17.2,0,0,0-6.1,2h0l-.1-2.8h0a8.02,8.02,0,0,1,5.3-3.5,15.024,15.024,0,0,1,6.3.2c2.8.7,4.9,2.1,5,3.4a16.252,16.252,0,0,1-.1,3.8ZM17,27.1a15.829,15.829,0,0,1,9.1,3.1,16.117,16.117,0,0,0,.1-3.8c-.1-1.2-2.2-2.6-4.9-3.3a14.519,14.519,0,0,0-6.2-.2,7.811,7.811,0,0,0-5.2,3.5l.1,2.8a17.282,17.282,0,0,1,6-2C16.2,27.2,16.6,27.1,17,27.1Z" fill="#c9bda9"/>
            </g>
            <g id="Group_42" data-name="Group 42">
              <g id="_x31__4_">
                <path id="Path_33" data-name="Path 33" d="M6.4,6.6c-.4,1.9,1.2,7.7.7,10.8-.3-1.6-1.3-4.8-1.3-6.6A12.751,12.751,0,0,0,4.3,7.9c-.5-.5,1.1-3.1,2.1-1.3" fill-rule="evenodd" fill="url(#linear-gradient-4)"/>
                <path id="Path_34" data-name="Path 34" d="M10.1,25.5h0C7.9,23,7,18.6,6.3,14.9,5.7,12,5.2,9.5,4.2,8.7h0c-.1-.2-.2-.3-.2-.5a2.344,2.344,0,0,1,.2-1.1A1.765,1.765,0,0,1,5,6.2a.908.908,0,0,1,.7-.3h0a4.875,4.875,0,0,0-.7.3,7.018,7.018,0,0,1-.6.9c-.5,1,.5.9.9,1.4,1,.8,1.1,3.4,1.7,6.4.7,3.7,1,8,3.1,10.6h0" fill="#aa9775"/>
              </g>
              <g id="_x32__4_">
                <path id="Path_35" data-name="Path 35" d="M10,5.9c-.4,1.9.6,6.1,0,9.2-.3-1.6-1.3-4.8-1.3-6.6-.5-1.1-1.1-2.3-1.4-3C7,4.9,8.7,4.1,10,5.9" fill-rule="evenodd" fill="url(#linear-gradient-5)"/>
                <path id="Path_36" data-name="Path 36" d="M9.3,5.2c-.5-.3-.6-.3-1-.2a.749.749,0,0,0-.5.1c-.1.1-.1.2-.2.3,0,.2-.1.2,0,.6h0A15.287,15.287,0,0,1,10,13.2c.3,3.6-.1,7.7,2.3,10.5h0c-2.4-2.9-2.8-6.9-3.1-10.6C8.9,10.2,8.7,7.6,7.5,6h0a1.08,1.08,0,0,1-.3-.7c0-.1.1-.3.2-.3.1-.1.3-.1.4-.2a1.674,1.674,0,0,1,1.5.4h0" fill="#aa9775"/>
              </g>
              <g id="_x33__4_">
                <path id="Path_37" data-name="Path 37" d="M15.9,2.6C17,4.5,15,12.8,14.6,18.1c0,.4-3.9-17.4,1.3-15.5" fill="url(#linear-gradient-6)"/>
                <path id="Path_38" data-name="Path 38" d="M15.5,22.7A48.829,48.829,0,0,1,12.7,9.1a12.919,12.919,0,0,1,.4-4.6c.4-1.2,1-2,1.9-2.1a3.4,3.4,0,0,1,1,.1h0a3.334,3.334,0,0,0-1,0c-.8.2-.7.7-1.2,1.8a14.33,14.33,0,0,0-.4,4.4c.6,4.6,1.4,10.6,2.1,14h0" fill="#b6a686"/>
              </g>
              <path id="_x34__4_" d="M19.2,22.5c0-.4-.1-.7-.1-1.1-.8-6-1.8-13.2,1.7-18.5h0C19.3,6.8,19.1,14.2,19,16.5a40.657,40.657,0,0,0,.1,4.8c0,.4.1.8.1,1.2h0" fill="#ccbd9d"/>
              <path id="_x35__4_" d="M23,23.2c.1-3.1.5-6.7.7-9.8.7-3.9,2.8-5.8,3.3-9.8h0a26.146,26.146,0,0,0-3.5,9.9,53.492,53.492,0,0,0-.5,9.7h0" fill="url(#linear-gradient-7)"/>
              <g id="_x36__4_">
                <path id="Path_39" data-name="Path 39" d="M32.3,8.3c-1.6,4.9-3.5,9.8-5.4,14.7,0-6.5,3.5-14.3,5.4-14.7" fill="url(#linear-gradient-8)"/>
                <path id="Path_40" data-name="Path 40" d="M25.9,25.2c.8-.9.9-2.2,1-3.8a11.526,11.526,0,0,1,.9-4.7.367.367,0,0,1,.1-.3c.5-1.6,2.3-8.2,4.6-8.1h0c-1.7-.1-3.9,6.5-4.4,8.1a.367.367,0,0,1-.1.3h0a20.462,20.462,0,0,0-.9,4.7c-.1,1.5-.3,2.9-1.2,3.8h0" fill="#aa9775"/>
              </g>
            </g>
          </g>
        </g>
        <g id="name_4_">
          <path id="Path_41" data-name="Path 41" d="M47.5,37.8c0,.1-.1.2-.2.4a6,6,0,0,1-4.8,2.1,6.568,6.568,0,0,1-5-2.1,7.283,7.283,0,0,1-1.9-5.1,7.138,7.138,0,0,1,1.8-5,6.389,6.389,0,0,1,4.8-2.2,6.485,6.485,0,0,1,5,1.9.758.758,0,0,1,.2.4,5.113,5.113,0,0,1-.7,1.4c-.5.8-.7,1.2-.9,1.3-.1,0-.1.1-.2.1a2.22,2.22,0,0,1-.5-.4,3.047,3.047,0,0,0-1-.7,3.167,3.167,0,0,0-1.6-.4,2.845,2.845,0,0,0-2.3,1.1,4.306,4.306,0,0,0,0,5,2.845,2.845,0,0,0,2.3,1.1,2.934,2.934,0,0,0,1.6-.4,6.071,6.071,0,0,0,1-.7c.3-.2.4-.4.5-.4s.1,0,.2.1.4.5.9,1.2a12.625,12.625,0,0,0,.8,1.3Z" fill="#fff"/>
          <path id="Path_42" data-name="Path 42" d="M61.5,33.2a6.856,6.856,0,0,1-2,5.1,7,7,0,0,1-10,0,7.5,7.5,0,0,1,0-10.2,7,7,0,0,1,10,0,6.856,6.856,0,0,1,2,5.1Zm-3.7,0a3.656,3.656,0,0,0-.9-2.5,3.043,3.043,0,0,0-2.4-1.1,2.99,2.99,0,0,0-2.3,1.1,3.922,3.922,0,0,0,0,5,3.154,3.154,0,0,0,4.7-.1,3.583,3.583,0,0,0,.9-2.4Z" fill="#fff"/>
          <path id="Path_43" data-name="Path 43" d="M75.1,33.1a7.108,7.108,0,0,1-1.9,5,6.006,6.006,0,0,1-4.6,2H62.7c-.2,0-.3-.1-.3-.2,0-.7,0-1.8.1-3.2s.1-2.5.1-3.2,0-1.9-.1-3.4-.1-2.6-.1-3.4c0-.1.1-.2.3-.2.5,0,1.2-.1,2.3-.1a34.68,34.68,0,0,1,3.9.1,6.964,6.964,0,0,1,3.6,1.2,6.339,6.339,0,0,1,2,2.5,7.173,7.173,0,0,1,.6,2.9Zm-3.7,0a3.62,3.62,0,0,0-1-2.7,3.467,3.467,0,0,0-2.6-1.1c-1,0-1.5.1-1.5.4v6.8c0,.3.5.4,1.6.4a3.693,3.693,0,0,0,2.7-1.1,4.138,4.138,0,0,0,.8-2.7Z" fill="#fff"/>
          <path id="Path_44" data-name="Path 44" d="M86.1,37c0,.3-.1.8-.2,1.5a6.1,6.1,0,0,1-.3,1.5c-.1.1-.2.2-.3.2H85a36.988,36.988,0,0,0-4.2-.1H76.4a.265.265,0,0,1-.3-.3c0-.7,0-1.8.1-3.3s.1-2.6.1-3.3,0-2.1-.1-4.1c0-.5-.1-1.3-.1-2.3v-.1a.215.215,0,0,1,.2-.2h8.8a.548.548,0,0,1,.6.4,11.347,11.347,0,0,1,.1,1.4,10.328,10.328,0,0,1,.1,1.4.215.215,0,0,1-.2.2h-.2c-1.7-.1-3.3-.2-4.7-.2-.3,0-.6.1-.6.2v.7a2,2,0,0,0,.2.9.845.845,0,0,0,.6.2h.9a20.9,20.9,0,0,0,2.5-.1h1c.2,0,.2.1.2.2a8.3,8.3,0,0,0-.2,1.5,8.083,8.083,0,0,0-.1,1.6c0,.1-.1.2-.3.2a6.173,6.173,0,0,1-.9-.1c-.4,0-1.2-.1-2.5-.1h-1a.588.588,0,0,0-.5.2v.6a2.509,2.509,0,0,0,.1,1c.1.2.5.4,1.3.4h1.4a9.233,9.233,0,0,0,1.5-.1,9.889,9.889,0,0,1,1.5-.1c.1-.2.2-.1.2.1Z" fill="#fff"/>
          <path id="Path_45" data-name="Path 45" d="M123.1,37.2c0,.3-.1.8-.2,1.5a4.95,4.95,0,0,1-.3,1.4c-.1.1-.2.2-.3.2H122a33.7,33.7,0,0,0-4-.1h-4.4a.265.265,0,0,1-.3-.3c0-.7,0-1.8.1-3.2s.1-2.5.1-3.2,0-2-.1-4c0-.5-.1-1.2-.1-2.2v-.1a.215.215,0,0,1,.2-.2h8.4a.548.548,0,0,1,.6.4,10.867,10.867,0,0,1,.1,1.3,9.286,9.286,0,0,1,.1,1.3.215.215,0,0,1-.2.2h-.2c-1.7-.1-3.2-.2-4.5-.2a.845.845,0,0,0-.6.2v.7a1.292,1.292,0,0,0,.2.8.845.845,0,0,0,.6.2h.9a19.269,19.269,0,0,0,2.4-.1h1c.2,0,.2.1.2.2a5.628,5.628,0,0,0-.2,1.4c0,.5-.1,1-.1,1.5,0,.1-.1.2-.3.2a6.173,6.173,0,0,1-.9-.1c-.4,0-1.2-.1-2.5-.1h-1a.588.588,0,0,0-.5.2v.6c0,.5,0,.8.1.9.1.2.5.4,1.2.4h1.4a9.889,9.889,0,0,0,1.5-.1,9.889,9.889,0,0,1,1.5-.1c.3.1.4.2.4.4Z" fill="#f9f4df"/>
          <path id="Path_46" data-name="Path 46" d="M133.5,30.1c0,.1-.1.1-.2.1a20.341,20.341,0,0,1-2.2-.1,20.341,20.341,0,0,0-2.2-.1,2.532,2.532,0,0,0-1.1.1q-.3.15-.3.9c0,.6.2.9.5,1h.6a17.223,17.223,0,0,0,2-.1c.9,0,1.5-.1,2-.1.2,0,.3.5.3,1.7a5.817,5.817,0,0,1-.1,1.7c0,.1-.1.2-.3.2.1,0-.1,0-.6-.1a25.456,25.456,0,0,0-3.1-.1H128a.458.458,0,0,0-.5.4c0,.9,0,1.9.1,3.1.1,1,.1,1.5.1,1.4q0,.3-.6.3h-.8a12.269,12.269,0,0,1-2.3-.1.265.265,0,0,1-.3-.3c0-.7,0-1.7.1-3.1,0-1.4.1-2.4.1-3.1,0-.8,0-1.9-.1-3.1-.1-1.9-.2-3-.2-3.1v-.1c0-.2.1-.2.3-.2h4.2a22,22,0,0,0,2.3-.1,22,22,0,0,1,2.3-.1c.3,0,.5.1.5.4v1.2a3.216,3.216,0,0,0,.1.8c.2.1.2.4.2.6Z" fill="#f9f4df"/>
          <g id="Group_43" data-name="Group 43">
            <path id="Path_47" data-name="Path 47" d="M87,30.4a8.054,8.054,0,0,0,.4,5.7,7.492,7.492,0,0,0,3.9,4.1,6.5,6.5,0,0,0,5.6-.2,6.332,6.332,0,0,0,3.6-4.1v-.2c-.1-.1-.4-.3-1.1-.8-.8-.5-1.1-.7-1.3-.8,0,.1-.1.2-.2.4a3.6,3.6,0,0,1-.8,1.2,3.978,3.978,0,0,1-1.6,1.2,3.123,3.123,0,0,1-3.1-.1,5.228,5.228,0,0,1-2.1-2.3,4.251,4.251,0,0,1-.3-3.1A3.444,3.444,0,0,1,92,29a4.333,4.333,0,0,1,1.9-.4,3.529,3.529,0,0,1,1.4.3.756.756,0,0,0,.4.1c0-.1.1-.5.2-1.6s.1-1.5.1-1.5a.349.349,0,0,0-.2-.1,5.932,5.932,0,0,0-2.3-.5,7.937,7.937,0,0,0-3.2.8A7.16,7.16,0,0,0,87,30.4Z" fill="#f9f4df"/>
          </g>
          <g id="Group_44" data-name="Group 44">
            <path id="Path_48" data-name="Path 48" d="M112.1,36.8c-.1-1.4-.1-2.4-.1-3.1s0-1.8.1-3.3.1-2.5.1-3.3c0-.1-.1-.2-.3-.2h-3.2c-.2,0-.2.1-.2.3a18.749,18.749,0,0,0,.1,2.1c0,.9.1,1.6.1,2a.52.52,0,0,1-.2.4c-.2,0-1,.1-2.4.1a9.9,9.9,0,0,1-2.4-.1c-.1,0-.2-.2-.2-.4a17.858,17.858,0,0,1,.1-2.1,17.858,17.858,0,0,0,.1-2.1.215.215,0,0,0-.2-.2H99.9a.215.215,0,0,0-.2.2c0,.7,0,1.8.1,3.3s.1,2.5.1,3.3v.5l.1.1c1.3.8,1.3.9,1.4,1a.846.846,0,0,1,0,.7,6.385,6.385,0,0,1-1.7,3v.7a.265.265,0,0,0,.3.3c.2,0,.8.1,1.6.1a6.727,6.727,0,0,0,1.8-.1.265.265,0,0,0,.3-.3V35.3c0-.2.1-.4.2-.4.2,0,1-.1,2.3-.1a10.477,10.477,0,0,1,2.3.1c.1,0,.2.2.2.4a20.342,20.342,0,0,1-.1,2.2c0,1-.1,1.7-.1,2.2q0,.15.3.3c.2,0,.8.1,1.8.1a7.115,7.115,0,0,0,1.6-.1h.3c.1,0,.1-.1.1-.2A7.059,7.059,0,0,1,112.1,36.8Z" fill="#f9f4df"/>
          </g>
        </g>
      </g>
    </g>
  </g>
</svg>
