<svg xmlns="http://www.w3.org/2000/svg" width="46.101" height="45.135" viewBox="0 0 46.101 45.135">
  <path id="Github_1_" d="M24.8,52.4a23.091,23.091,0,0,0-7.3,45c1.2.2,1.5-.5,1.5-1.1v-4c-6.4,1.4-7.8-3-7.8-3a5.792,5.792,0,0,0-2.6-3.4c-2.1-1.4.2-1.4.2-1.4a4.89,4.89,0,0,1,3.5,2.4c2.1,3.5,5.4,2.5,6.7,1.9a4.78,4.78,0,0,1,1.5-3.1C15.4,85.1,10,83.1,10,74.3a8.862,8.862,0,0,1,2.4-6.2,8.754,8.754,0,0,1,.2-6.1s1.9-.6,6.3,2.4a21.955,21.955,0,0,1,5.8-.8,22.545,22.545,0,0,1,5.8.8c4.4-3,6.3-2.4,6.3-2.4a7.68,7.68,0,0,1,.2,6.1,8.862,8.862,0,0,1,2.4,6.2c0,8.9-5.4,10.8-10.5,11.4A5.58,5.58,0,0,1,30.5,90v6.4c0,.6.4,1.3,1.5,1.1a23.149,23.149,0,0,0-7.2-45.1Z" transform="translate(-1.7 -52.4)" />
</svg>
