<svg xmlns="http://www.w3.org/2000/svg" width="44.561" height="33.946" viewBox="0 0 44.561 33.946">
  <g id="gmail" transform="translate(0 -60.983)">
    <path id="Path_5" data-name="Path 5" d="M5.2,115.755v25.72H2.1a2.1,2.1,0,0,1-2.1-2.1V111.967l3.394.093Z" transform="translate(0 -46.547)" />
    <path id="Path_6" data-name="Path 6" d="M457.485,109.229v27.408a2.1,2.1,0,0,1-2.1,2.1h-3.095v-25.72L454,108.968Z" transform="translate(-412.924 -43.809)" />
    <path id="Path_7" data-name="Path 7" d="M44.561,63.084V65.42l-5.2,3.788L22.28,81.66,5.2,69.209,0,65.42V63.084a2.1,2.1,0,0,1,2.1-2.1H3.317L22.28,74.8,41.244,60.983h1.215A2.1,2.1,0,0,1,44.561,63.084Z"/>
    <path id="Path_8" data-name="Path 8" d="M5.2,115.755,0,114.949v-2.982Z" transform="translate(0 -46.547)"/>
  </g>
</svg>
