<svg xmlns="http://www.w3.org/2000/svg" width="209.87" height="22.908" viewBox="0 0 209.87 22.908">
  <g id="logo-new-white-green-a5cb16e0ae" transform="translate(0 0.1)">
    <path id="Path_49" data-name="Path 49" d="M16.1-.089h-4.91a.345.345,0,0,0-.344.344V8.289H5.6V.255a.345.345,0,0,0-.344-.344H.344A.345.345,0,0,0,0,.255V22.043a.345.345,0,0,0,.344.344h4.9a.345.345,0,0,0,.344-.344V13.3h5.253v8.744a.345.345,0,0,0,.344.344H16.1a.345.345,0,0,0,.344-.344V.255A.345.345,0,0,0,16.1-.089Zm11.88,4.81a13.593,13.593,0,0,0-4.2.654A20.466,20.466,0,0,0,20.059,7a.343.343,0,0,0-.133.465l1.74,3.2a.347.347,0,0,0,.465.144,20.155,20.155,0,0,1,2.582-1.1,7.108,7.108,0,0,1,2.305-.4,3.968,3.968,0,0,1,2.349.565,2.009,2.009,0,0,1,.776,1.164,33.737,33.737,0,0,0-4.677.6,13.289,13.289,0,0,0-3.491,1.219,5.225,5.225,0,0,0-2.05,1.917,5.213,5.213,0,0,0-.643,2.627,5.485,5.485,0,0,0,.41,2.106,5.261,5.261,0,0,0,1.164,1.7,5.126,5.126,0,0,0,1.829,1.142,6.775,6.775,0,0,0,2.394.41,8.277,8.277,0,0,0,3.247-.676,13.622,13.622,0,0,0,2.516-1.419l.277,1.419a.345.345,0,0,0,.344.277h4.012a.345.345,0,0,0,.344-.344V12.534c0-2.627-.709-4.61-2.117-5.907a8.269,8.269,0,0,0-5.719-1.906ZM30.211,16.89a9.144,9.144,0,0,1-1.64.975,4.538,4.538,0,0,1-1.928.421,2.868,2.868,0,0,1-1.507-.332.946.946,0,0,1-.454-.887,1.559,1.559,0,0,1,.233-.82,2.014,2.014,0,0,1,.842-.687,7.108,7.108,0,0,1,1.818-.554A22.032,22.032,0,0,1,30.2,14.7l.011,2.194Zm23.329-.177a.382.382,0,0,0-.233-.155.329.329,0,0,0-.266.055,9.24,9.24,0,0,1-1.906,1.064,5.848,5.848,0,0,1-2.272.443,4.047,4.047,0,0,1-4.3-4.355,4.143,4.143,0,0,1,1.23-3.192A4.535,4.535,0,0,1,49.029,9.4,6.013,6.013,0,0,1,52.5,10.639a.339.339,0,0,0,.477-.078l2.272-3.037a.344.344,0,0,0-.044-.465,9.5,9.5,0,0,0-2.76-1.673,11.24,11.24,0,0,0-7.436-.055,9.6,9.6,0,0,0-3.17,1.751,8.564,8.564,0,0,0-2.194,2.837,8.751,8.751,0,0,0-.82,3.846,9.58,9.58,0,0,0,.731,3.835,8.07,8.07,0,0,0,2.039,2.848A8.974,8.974,0,0,0,44.629,22.2a11.366,11.366,0,0,0,3.757.61,11.988,11.988,0,0,0,3.635-.6,10.279,10.279,0,0,0,3.447-1.917.343.343,0,0,0,.066-.454L53.54,16.712Zm15.77-4.4,6.1-6.605a.348.348,0,0,0-.255-.587H69.776a.361.361,0,0,0-.255.111l-5.608,6.007V.244A.345.345,0,0,0,63.57-.1H58.66a.345.345,0,0,0-.344.344V22.032a.345.345,0,0,0,.344.344h4.91a.345.345,0,0,0,.344-.344V18.064l2.061-2.006,4.078,6.162a.348.348,0,0,0,.288.155h5.309a.364.364,0,0,0,.31-.188.34.34,0,0,0-.022-.355l-6.627-9.52ZM91.265,7.1A6.954,6.954,0,0,0,88.7,5.342a9.136,9.136,0,0,0-3.5-.632,9.289,9.289,0,0,0-3.347.621,8.71,8.71,0,0,0-4.876,4.633,9.166,9.166,0,0,0-.754,3.779,9.214,9.214,0,0,0,.754,3.812,8.531,8.531,0,0,0,2.039,2.837,8.693,8.693,0,0,0,3.026,1.773,11.262,11.262,0,0,0,3.724.61,12.162,12.162,0,0,0,3.5-.532,12.412,12.412,0,0,0,3.225-1.463.353.353,0,0,0,.122-.454l-1.6-2.926a.347.347,0,0,0-.465-.144,11.466,11.466,0,0,1-2.061.831,7.782,7.782,0,0,1-2.061.266,5.256,5.256,0,0,1-2.948-.8,3.492,3.492,0,0,1-1.43-2.117H92.783a.354.354,0,0,0,.344-.277c.044-.211.089-.5.144-.887a11.022,11.022,0,0,0,.066-1.263,10.059,10.059,0,0,0-.521-3.269A7.758,7.758,0,0,0,91.265,7.1Zm-9.276,4.6a3.174,3.174,0,0,1,1.13-1.829,3.563,3.563,0,0,1,2.183-.72,2.8,2.8,0,0,1,2.205.776,3.054,3.054,0,0,1,.676,1.762h-6.2Zm30.078-6.284a7.129,7.129,0,0,0-3.358-.7A7.821,7.821,0,0,0,104.8,5.752a8.4,8.4,0,0,0-2.649,2.46l-.31-2.782a.347.347,0,0,0-.344-.31H97.482a.345.345,0,0,0-.344.344V22.032a.345.345,0,0,0,.344.344h4.91a.345.345,0,0,0,.344-.344V13.487a6.8,6.8,0,0,1,2.383-2.926,5.446,5.446,0,0,1,2.848-.853,7.88,7.88,0,0,1,1.485.111,12.774,12.774,0,0,1,1.352.344.351.351,0,0,0,.277-.033.344.344,0,0,0,.166-.222l1-4.112a.3.3,0,0,0-.177-.377Zm15.593,8.057a6.887,6.887,0,0,0,2.6-2.283,7.153,7.153,0,0,0,1.13-4.156,7.359,7.359,0,0,0-.709-3.4,5.883,5.883,0,0,0-1.939-2.217A8.016,8.016,0,0,0,125.953.244,15.889,15.889,0,0,0,122.617-.1H114.9a.345.345,0,0,0-.344.344V22.032a.345.345,0,0,0,.344.344h4.91a.345.345,0,0,0,.344-.344v-7.5h2.017l4.078,7.669a.351.351,0,0,0,.31.188h5.508a.349.349,0,0,0,.3-.177.321.321,0,0,0,0-.344Zm-5.43-3.546h-2.061V4.51h2.061a5.37,5.37,0,0,1,2.782.576,2.1,2.1,0,0,1,.842,1.939c0,1.984-1.153,2.9-3.624,2.9Zm19.86-5.209a13.593,13.593,0,0,0-4.2.654A20.466,20.466,0,0,0,134.165,7a.343.343,0,0,0-.133.465l1.74,3.2a.347.347,0,0,0,.465.144,20.154,20.154,0,0,1,2.582-1.1,7.108,7.108,0,0,1,2.305-.4,3.968,3.968,0,0,1,2.349.565,2.009,2.009,0,0,1,.776,1.164,33.736,33.736,0,0,0-4.677.6,13.289,13.289,0,0,0-3.491,1.219,5.225,5.225,0,0,0-2.05,1.917,5.213,5.213,0,0,0-.643,2.627,5.486,5.486,0,0,0,.41,2.106,5.261,5.261,0,0,0,1.164,1.7,5.126,5.126,0,0,0,1.829,1.142,6.775,6.775,0,0,0,2.394.41,8.277,8.277,0,0,0,3.247-.676,13.622,13.622,0,0,0,2.516-1.419l.277,1.419a.345.345,0,0,0,.344.277h4.012a.345.345,0,0,0,.344-.344V12.534c0-2.627-.709-4.61-2.117-5.907a8.23,8.23,0,0,0-5.719-1.906Zm2.228,12.169a9.144,9.144,0,0,1-1.64.975,4.538,4.538,0,0,1-1.928.421,2.868,2.868,0,0,1-1.507-.332.946.946,0,0,1-.454-.887,1.559,1.559,0,0,1,.233-.82,2.014,2.014,0,0,1,.842-.687,7.108,7.108,0,0,1,1.818-.554,22.032,22.032,0,0,1,2.627-.31V16.89h.011ZM164.1,4.721a7.076,7.076,0,0,0-3.424.809A11.855,11.855,0,0,0,158.5,7.081l-.277-1.662a.355.355,0,0,0-.344-.288H153.87a.345.345,0,0,0-.344.344V22.043a.345.345,0,0,0,.344.344h4.91a.345.345,0,0,0,.344-.344V11.127a7.632,7.632,0,0,1,1.452-1.153,3.138,3.138,0,0,1,1.585-.388,1.858,1.858,0,0,1,1.618.621,4.1,4.1,0,0,1,.477,2.239v9.586a.345.345,0,0,0,.344.344h4.91a.345.345,0,0,0,.344-.344V11.814a8.69,8.69,0,0,0-1.374-5.153A5.024,5.024,0,0,0,164.1,4.721Zm27.019,17.123-6.627-9.531,6.1-6.605a.348.348,0,0,0-.255-.587h-5.375a.361.361,0,0,0-.255.111l-5.608,6.007V.244A.345.345,0,0,0,178.75-.1h-4.91a.345.345,0,0,0-.344.344V22.032a.345.345,0,0,0,.344.344h4.91a.345.345,0,0,0,.344-.344V18.064l2.061-2.006,4.067,6.173a.348.348,0,0,0,.288.155h5.309a.364.364,0,0,0,.31-.188.34.34,0,0,0-.011-.355Z" fill="#f1e5e5"/>
    <path id="Path_50" data-name="Path 50" d="M1761.314,22.475a.345.345,0,0,0,.344-.344V.344a.345.345,0,0,0-.344-.344h-15.77a.345.345,0,0,0-.344.344V22.132a.345.345,0,0,0,.344.344h15.77Z" transform="translate(-1551.787 -0.089)" fill="#2ec866"/>
  </g>
</svg>
