<svg id="LeetCode_s-new-logo" data-name="LeetCode’s-new-logo" xmlns="http://www.w3.org/2000/svg" width="203.794" height="49.363" viewBox="0 0 203.794 49.363">
  <g id="logo_english_dark">
    <g id="Group_46" data-name="Group 46" transform="translate(0)">
      <g id="Logo_English" transform="translate(0)">
        <g id="Group-10">
          <path id="Combined-Shape" d="M30.043,48.271A2.84,2.84,0,0,1,34.049,52.3l-4.928,4.921a11.88,11.88,0,0,1-16.583.153l-8.876-8.7A11.482,11.482,0,0,1,2.945,32.6l7.927-8.488A12.806,12.806,0,0,1,27.694,23l7.2,5.822a2.84,2.84,0,0,1-3.564,4.423l-7.2-5.822a7.161,7.161,0,0,0-9.114.571L7.088,36.48A5.808,5.808,0,0,0,7.631,44.6l8.835,8.663a6.215,6.215,0,0,0,8.65-.076Z" transform="translate(0 -11.303)" fill="#ffa116"/>
          <path id="Path-2" d="M37.069,64.913a2.842,2.842,0,0,1,0-5.684H57.993a2.842,2.842,0,0,1,0,5.684Z" transform="translate(-18.997 -32.87)" fill="#fff" fill-rule="evenodd"/>
          <path id="Stroke-3" d="M21.99.9a2.84,2.84,0,1,1,4.144,3.883L7.089,25.177A5.808,5.808,0,0,0,7.631,33.3l8.8,8.625a2.84,2.84,0,0,1-3.969,4.062l-8.8-8.625a11.482,11.482,0,0,1-.716-16.07Z" transform="translate(0 0)" fill="#fff" fill-rule="evenodd"/>
        </g>
        <path id="LeetCode" d="M127.9,36.91V55.615a2.612,2.612,0,0,0,2.607,2.608h5.059a1.6,1.6,0,0,1,1.6,1.6v.035a1.484,1.484,0,0,1-.469,1.113,1.541,1.541,0,0,1-1.13.469h-5.059a5.817,5.817,0,0,1-5.823-5.824V36.91a1.572,1.572,0,0,1,1.582-1.582h.052A1.573,1.573,0,0,1,127.9,36.91Zm20.148,8.8a6.283,6.283,0,0,0-6.206,7.214l11-4.972A5.98,5.98,0,0,0,148.052,45.706ZM156.675,48a1.568,1.568,0,0,1-.782,2.1q-2.434,1.1-6.4,2.886l-6.38,2.886a5.967,5.967,0,0,0,4.937,2.4,6.28,6.28,0,0,0,5.928-4.224,1.49,1.49,0,0,1,1.53-1.078,1.527,1.527,0,0,1,1.3.678,1.5,1.5,0,0,1,.191,1.443,9.142,9.142,0,0,1-3.408,4.555,9.265,9.265,0,0,1-5.545,1.791,9.49,9.49,0,0,1-6.711-16.2A9.469,9.469,0,0,1,153.233,44,9.282,9.282,0,0,1,156.675,48Zm12.534-2.295A6.283,6.283,0,0,0,163,52.921l11-4.972A5.98,5.98,0,0,0,169.209,45.706ZM177.831,48a1.568,1.568,0,0,1-.782,2.1q-2.434,1.1-6.4,2.886l-6.38,2.886a5.967,5.967,0,0,0,4.937,2.4,6.28,6.28,0,0,0,5.928-4.224,1.49,1.49,0,0,1,1.53-1.078,1.527,1.527,0,0,1,1.3.678,1.5,1.5,0,0,1,.191,1.443,9.144,9.144,0,0,1-3.407,4.555,9.266,9.266,0,0,1-5.546,1.791,9.49,9.49,0,0,1-6.711-16.2A9.469,9.469,0,0,1,174.389,44,9.282,9.282,0,0,1,177.831,48Zm5.2-12.673a1.573,1.573,0,0,1,1.582,1.582v5.546h3.129a1.52,1.52,0,0,1,1.113.469,1.541,1.541,0,0,1,.47,1.13v.035a1.484,1.484,0,0,1-.47,1.113,1.52,1.52,0,0,1-1.113.469h-3.129V56.5a1.659,1.659,0,0,0,.5,1.217,1.678,1.678,0,0,0,1.234.5h1.391a1.52,1.52,0,0,1,1.113.469,1.541,1.541,0,0,1,.47,1.13v.035a1.484,1.484,0,0,1-.47,1.113,1.52,1.52,0,0,1-1.113.469h-1.391a4.927,4.927,0,0,1-4.955-4.937V36.91a1.573,1.573,0,0,1,1.582-1.582Zm21.348,0a13.354,13.354,0,0,1,3.251.4,1.446,1.446,0,0,1,1.2,1.53v.052a1.592,1.592,0,0,1-1.982,1.53,9.873,9.873,0,0,0-2.469-.313,9.852,9.852,0,0,0-9.839,9.857,9.823,9.823,0,0,0,9.839,9.839,10.424,10.424,0,0,0,2.469-.3,1.5,1.5,0,0,1,1.356.278,1.487,1.487,0,0,1,.626,1.252v.035a1.456,1.456,0,0,1-1.2,1.547,13.356,13.356,0,0,1-3.251.4,13.058,13.058,0,0,1-13.056-13.055,13.058,13.058,0,0,1,13.056-13.056Zm16.2,10.378a6.292,6.292,0,1,0,4.433,1.843A6.064,6.064,0,0,0,220.579,45.706Zm0-3.251a9.49,9.49,0,0,1,6.71,16.2,9.49,9.49,0,1,1-13.42-13.421A9.145,9.145,0,0,1,220.579,42.456ZM242,45.706a6.292,6.292,0,1,0,4.433,1.843A6.064,6.064,0,0,0,242,45.706Zm7.91-10.378a1.572,1.572,0,0,1,1.582,1.582V52a9.511,9.511,0,1,1-3.216-7.162V36.91a1.573,1.573,0,0,1,1.582-1.582Zm14.029,10.378a6.283,6.283,0,0,0-6.206,7.214l11-4.972A5.979,5.979,0,0,0,263.935,45.706ZM272.557,48a1.568,1.568,0,0,1-.782,2.1q-2.434,1.1-6.4,2.886L259,55.876a5.968,5.968,0,0,0,4.937,2.4,6.28,6.28,0,0,0,5.928-4.224,1.49,1.49,0,0,1,1.53-1.078,1.527,1.527,0,0,1,1.3.678,1.493,1.493,0,0,1,.191,1.443,9.139,9.139,0,0,1-3.407,4.555,9.266,9.266,0,0,1-5.546,1.791,9.49,9.49,0,0,1-6.71-16.2A9.469,9.469,0,0,1,269.115,44,9.284,9.284,0,0,1,272.557,48Z" transform="translate(-69.198 -19.606)" fill="#fff" fill-rule="evenodd"/>
      </g>
    </g>
  </g>
</svg>
