<svg xmlns="http://www.w3.org/2000/svg" width="37" height="36" viewBox="0 0 37 36">
  <g id="Group_1916" data-name="Group 1916" transform="translate(-75 -318)">
    <g id="Group_1915" data-name="Group 1915" transform="translate(83.308 327.451)">
      <g id="pencil-svgrepo-com" transform="translate(0)">
        <path id="Path_254" data-name="Path 254" d="M15.261,5.915l2.37-2.37a1.442,1.442,0,0,0,0-2.037L16.545.421a1.442,1.442,0,0,0-2.037,0l-.543.543a.288.288,0,0,0,.407.407l.543-.543a.865.865,0,0,1,1.222,0l1.086,1.086a.865.865,0,0,1,0,1.222L16.069,4.291,13.557,1.779a.288.288,0,0,0-.407,0L12.138,2.791,1.986,12.943l0,0-.007.008a.288.288,0,0,0-.054.085L.814,15.73v0L.022,17.654A.288.288,0,0,0,.4,18.03l1.921-.791h0l2.693-1.109a.289.289,0,0,0,.085-.054l.007-.007,0,0ZM5,15.356a1.819,1.819,0,0,0-.283-.366,1.783,1.783,0,0,0-.79-.462L11.459,7a.288.288,0,0,0-.407-.407L3.524,14.121a1.784,1.784,0,0,0-.462-.79,1.818,1.818,0,0,0-.366-.283L12.341,3.4l.95.95L12.138,5.507a.288.288,0,0,0,.407.407L13.7,4.76l.951.95ZM2.28,16.632l-.86-.86.93-2.258a1.234,1.234,0,0,1,.305.223,1.135,1.135,0,0,1,.337.989.288.288,0,0,0,.334.334,1.135,1.135,0,0,1,.989.337,1.234,1.234,0,0,1,.223.305ZM13.354,2.39,15.662,4.7l-.6.6L12.749,2.995ZM1.182,16.349l.52.521-.885.364Z" transform="translate(0 0)"/>
      </g>
    </g>
    <g id="Rectangle_566" data-name="Rectangle 566" transform="translate(75 318)" fill="none"  stroke-width="1">
      <rect width="37" height="36" rx="18" stroke="none"/>
      <rect x="0.5" y="0.5" width="36" height="35" rx="17.5" fill="none"/>
    </g>
  </g>
</svg>
